<?xml version="1.0" encoding="UTF-8" standalone="no"?>
<svg width="356px" height="227px" viewBox="0 0 356 227" version="1.1" xmlns="http://www.w3.org/2000/svg" xmlns:xlink="http://www.w3.org/1999/xlink">
    <!-- Generator: Sketch 3.7.2 (28276) - http://www.bohemiancoding.com/sketch -->
    <title>CLI</title>
    <desc>Created with Sketch.</desc>
    <defs>
        <rect id="path-1" x="6" y="31" width="344" height="182" rx="4"></rect>
        <filter x="-50%" y="-50%" width="200%" height="200%" filterUnits="objectBoundingBox" id="filter-2">
            <feOffset dx="0" dy="5" in="SourceAlpha" result="shadowOffsetOuter1"></feOffset>
            <feGaussianBlur stdDeviation="2.5" in="shadowOffsetOuter1" result="shadowBlurOuter1"></feGaussianBlur>
            <feColorMatrix values="0 0 0 0 0   0 0 0 0 0   0 0 0 0 0  0 0 0 0.25 0" type="matrix" in="shadowBlurOuter1"></feColorMatrix>
        </filter>
        <circle id="path-3" cx="6" cy="6" r="6"></circle>
        <filter x="-50%" y="-50%" width="200%" height="200%" filterUnits="objectBoundingBox" id="filter-4">
            <feOffset dx="0" dy="1" in="SourceAlpha" result="shadowOffsetOuter1"></feOffset>
            <feGaussianBlur stdDeviation="0.5" in="shadowOffsetOuter1" result="shadowBlurOuter1"></feGaussianBlur>
            <feColorMatrix values="0 0 0 0 0   0 0 0 0 0   0 0 0 0 0  0 0 0 0.15 0" type="matrix" in="shadowBlurOuter1"></feColorMatrix>
        </filter>
        <circle id="path-5" cx="25" cy="6" r="6"></circle>
        <filter x="-50%" y="-50%" width="200%" height="200%" filterUnits="objectBoundingBox" id="filter-6">
            <feOffset dx="0" dy="1" in="SourceAlpha" result="shadowOffsetOuter1"></feOffset>
            <feGaussianBlur stdDeviation="0.5" in="shadowOffsetOuter1" result="shadowBlurOuter1"></feGaussianBlur>
            <feColorMatrix values="0 0 0 0 0   0 0 0 0 0   0 0 0 0 0  0 0 0 0.15 0" type="matrix" in="shadowBlurOuter1"></feColorMatrix>
        </filter>
        <circle id="path-7" cx="45" cy="6" r="6"></circle>
        <filter x="-50%" y="-50%" width="200%" height="200%" filterUnits="objectBoundingBox" id="filter-8">
            <feOffset dx="0" dy="1" in="SourceAlpha" result="shadowOffsetOuter1"></feOffset>
            <feGaussianBlur stdDeviation="0.5" in="shadowOffsetOuter1" result="shadowBlurOuter1"></feGaussianBlur>
            <feColorMatrix values="0 0 0 0 0   0 0 0 0 0   0 0 0 0 0  0 0 0 0.15 0" type="matrix" in="shadowBlurOuter1"></feColorMatrix>
        </filter>
    </defs>
    <g id="CLI" stroke="none" stroke-width="1" fill="none" fill-rule="evenodd">
        <g>
            <g id="Screem">
                <use fill="black" fill-opacity="1" filter="url(#filter-2)" xlink:href="#path-1"></use>
                <use fill="#1E1E1E" fill-rule="evenodd" xlink:href="#path-1"></use>
            </g>
            <rect id="Header" fill="#D5D5D5" x="6" y="5" width="344" height="26"></rect>
            <g id="IDE" transform="translate(21.000000, 11.000000)">
                <g id="Oval-1">
                    <use fill="black" fill-opacity="1" filter="url(#filter-4)" xlink:href="#path-3"></use>
                    <use fill="#FF6057" fill-rule="evenodd" xlink:href="#path-3"></use>
                </g>
                <g id="Oval-1">
                    <use fill="black" fill-opacity="1" filter="url(#filter-6)" xlink:href="#path-5"></use>
                    <use fill="#FFC22E" fill-rule="evenodd" xlink:href="#path-5"></use>
                </g>
                <g id="Oval-1">
                    <use fill="black" fill-opacity="1" filter="url(#filter-8)" xlink:href="#path-7"></use>
                    <use fill="#28CA40" fill-rule="evenodd" xlink:href="#path-7"></use>
                </g>
            </g>
            <path d="M25.6015625,71.4306641 L25.6015625,70.1865234 L32.8271484,73.0439453 L32.8271484,74.1787109 L25.6015625,77.0361328 L25.6015625,75.7851562 L31.4121094,73.6181641 L25.6015625,71.4306641 Z M57.4707031,73.2558594 L57.4707031,78 L56.2060547,78 L56.2060547,73.2558594 C56.2060547,72.5677049 56.0852877,72.0618506 55.84375,71.7382812 C55.6022123,71.4147119 55.2239609,71.2529297 54.7089844,71.2529297 C54.1210908,71.2529297 53.6687841,71.4614237 53.3520508,71.878418 C53.0353174,72.2954122 52.8769531,72.8935508 52.8769531,73.6728516 L52.8769531,78 L51.6191406,78 L51.6191406,70.34375 L52.8769531,70.34375 L52.8769531,71.4921875 C53.1002615,71.0546853 53.4033184,70.7231457 53.7861328,70.4975586 C54.1689472,70.2719715 54.6223932,70.1591797 55.1464844,70.1591797 C55.9257851,70.1591797 56.5079733,70.4155248 56.8930664,70.9282227 C57.2781595,71.4409205 57.4707031,72.2167917 57.4707031,73.2558594 L57.4707031,73.2558594 Z M61.2783203,77.0361328 L61.2783203,80.9121094 L60.0136719,80.9121094 L60.0136719,70.34375 L61.2783203,70.34375 L61.2783203,71.3212891 C61.4879568,70.943032 61.7670881,70.6547861 62.1157227,70.456543 C62.4643572,70.2582998 62.8665342,70.1591797 63.3222656,70.1591797 C64.2474005,70.1591797 64.9731419,70.5169235 65.4995117,71.2324219 C66.0258815,71.9479202 66.2890625,72.9391213 66.2890625,74.2060547 C66.2890625,75.4502015 66.0247422,76.4265915 65.4960938,77.1352539 C64.9674453,77.8439163 64.2428431,78.1982422 63.3222656,78.1982422 C62.8574196,78.1982422 62.4506853,78.0991221 62.1020508,77.9008789 C61.7534162,77.7026357 61.4788421,77.4143899 61.2783203,77.0361328 L61.2783203,77.0361328 Z M64.9697266,74.1787109 C64.9697266,73.2034456 64.8159195,72.4674504 64.5083008,71.9707031 C64.2006821,71.4739558 63.7438181,71.2255859 63.1376953,71.2255859 C62.5270152,71.2255859 62.0644547,71.4750952 61.75,71.9741211 C61.4355453,72.473147 61.2783203,73.208003 61.2783203,74.1787109 C61.2783203,75.1448616 61.4355453,75.8785782 61.75,76.3798828 C62.0644547,76.8811874 62.5270152,77.1318359 63.1376953,77.1318359 C63.7438181,77.1318359 64.2006821,76.883466 64.5083008,76.3867188 C64.8159195,75.8899715 64.9697266,75.1539762 64.9697266,74.1787109 L64.9697266,74.1787109 Z M71.7646484,71.1230469 C71.9195971,70.7949202 72.116698,70.5522469 72.355957,70.3950195 C72.595216,70.2377922 72.8834619,70.1591797 73.2207031,70.1591797 C73.8359406,70.1591797 74.2700183,70.3972958 74.5229492,70.8735352 C74.7758802,71.3497745 74.9023438,72.2464127 74.9023438,73.5634766 L74.9023438,78 L73.7539062,78 L73.7539062,73.6181641 C73.7539062,72.5380805 73.6935227,71.867026 73.5727539,71.6049805 C73.4519851,71.3429349 73.2320979,71.2119141 72.9130859,71.2119141 C72.5485008,71.2119141 72.2989916,71.3520494 72.1645508,71.6323242 C72.03011,71.9125991 71.9628906,72.5745391 71.9628906,73.6181641 L71.9628906,78 L70.8144531,78 L70.8144531,73.6181641 C70.8144531,72.5244086 70.7495124,71.8499362 70.6196289,71.5947266 C70.4897454,71.339517 70.2561866,71.2119141 69.9189453,71.2119141 C69.5862614,71.2119141 69.3549811,71.3520494 69.2250977,71.6323242 C69.0952142,71.9125991 69.0302734,72.5745391 69.0302734,73.6181641 L69.0302734,78 L67.8886719,78 L67.8886719,70.34375 L69.0302734,70.34375 L69.0302734,71 C69.1806648,70.7265611 69.3686512,70.5180671 69.5942383,70.3745117 C69.8198253,70.2309563 70.0761704,70.1591797 70.3632812,70.1591797 C70.7096371,70.1591797 70.997883,70.2389315 71.2280273,70.3984375 C71.4581717,70.5579435 71.6370436,70.7994775 71.7646484,71.1230469 L71.7646484,71.1230469 Z M86.1611328,70.3710938 L89.3808594,70.3710938 L89.3808594,77.0224609 L91.8759766,77.0224609 L91.8759766,78 L85.6279297,78 L85.6279297,77.0224609 L88.1230469,77.0224609 L88.1230469,71.3486328 L86.1611328,71.3486328 L86.1611328,70.3710938 Z M88.1230469,67.3974609 L89.3808594,67.3974609 L89.3808594,68.9833984 L88.1230469,68.9833984 L88.1230469,67.3974609 Z M99.6142578,73.2558594 L99.6142578,78 L98.3496094,78 L98.3496094,73.2558594 C98.3496094,72.5677049 98.2288424,72.0618506 97.9873047,71.7382812 C97.745767,71.4147119 97.3675156,71.2529297 96.8525391,71.2529297 C96.2646455,71.2529297 95.8123388,71.4614237 95.4956055,71.878418 C95.1788721,72.2954122 95.0205078,72.8935508 95.0205078,73.6728516 L95.0205078,78 L93.7626953,78 L93.7626953,70.34375 L95.0205078,70.34375 L95.0205078,71.4921875 C95.2438162,71.0546853 95.5468731,70.7231457 95.9296875,70.4975586 C96.3125019,70.2719715 96.7659479,70.1591797 97.2900391,70.1591797 C98.0693398,70.1591797 98.651528,70.4155248 99.0366211,70.9282227 C99.4217142,71.4409205 99.6142578,72.2167917 99.6142578,73.2558594 L99.6142578,73.2558594 Z M107.509766,70.6103516 L107.509766,71.8408203 C107.149738,71.6311838 106.787437,71.4739589 106.422852,71.3691406 C106.058266,71.2643224 105.686851,71.2119141 105.308594,71.2119141 C104.738929,71.2119141 104.313966,71.3041983 104.033691,71.4887695 C103.753417,71.6733408 103.613281,71.9547507 103.613281,72.3330078 C103.613281,72.6748064 103.718098,72.9300122 103.927734,73.0986328 C104.137371,73.2672534 104.659176,73.4313143 105.493164,73.5908203 L105.999023,73.6865234 C106.623376,73.8050136 107.09619,74.0419904 107.41748,74.3974609 C107.738771,74.7529315 107.899414,75.2154919 107.899414,75.7851562 C107.899414,76.5416704 107.630537,77.1329731 107.092773,77.559082 C106.55501,77.9851909 105.807622,78.1982422 104.850586,78.1982422 C104.472329,78.1982422 104.075848,78.1583663 103.661133,78.0786133 C103.246417,77.9988603 102.797528,77.8792326 102.314453,77.7197266 L102.314453,76.4208984 C102.783857,76.6624361 103.232745,76.8435866 103.661133,76.9643555 C104.08952,77.0851243 104.495115,77.1455078 104.87793,77.1455078 C105.433922,77.1455078 105.864582,77.032716 106.169922,76.8071289 C106.475262,76.5815418 106.62793,76.2659525 106.62793,75.8603516 C106.62793,75.2770153 106.069667,74.873699 104.953125,74.6503906 L104.898438,74.6367188 L104.426758,74.5410156 C103.702145,74.3997389 103.173504,74.1616228 102.84082,73.8266602 C102.508136,73.4916975 102.341797,73.0348336 102.341797,72.4560547 C102.341797,71.7223271 102.590167,71.1560892 103.086914,70.7573242 C103.583661,70.3585592 104.292313,70.1591797 105.212891,70.1591797 C105.623049,70.1591797 106.017251,70.196777 106.395508,70.2719727 C106.773765,70.3471683 107.14518,70.4599602 107.509766,70.6103516 L107.509766,70.6103516 Z M113.484375,68.1699219 L113.484375,70.34375 L116.341797,70.34375 L116.341797,71.3212891 L113.484375,71.3212891 L113.484375,75.4775391 C113.484375,76.0426461 113.59147,76.4368478 113.805664,76.6601562 C114.019858,76.8834647 114.393552,76.9951172 114.926758,76.9951172 L116.341797,76.9951172 L116.341797,78 L114.803711,78 C113.860347,78 113.194989,77.8108743 112.807617,77.4326172 C112.420245,77.0543601 112.226562,76.4026739 112.226562,75.4775391 L112.226562,71.3212891 L110.182617,71.3212891 L110.182617,70.34375 L112.226562,70.34375 L112.226562,68.1699219 L113.484375,68.1699219 Z M122.514648,74.1513672 L122.097656,74.1513672 C121.363929,74.1513672 120.811363,74.2801094 120.439941,74.5375977 C120.06852,74.7950859 119.882812,75.1790339 119.882812,75.6894531 C119.882812,76.1497419 120.021809,76.5074857 120.299805,76.7626953 C120.577801,77.0179049 120.962888,77.1455078 121.455078,77.1455078 C122.14779,77.1455078 122.692381,76.9051131 123.088867,76.4243164 C123.485354,75.9435197 123.685872,75.2793011 123.69043,74.4316406 L123.69043,74.1513672 L122.514648,74.1513672 Z M124.955078,73.6318359 L124.955078,78 L123.69043,78 L123.69043,76.8652344 C123.421548,77.3209658 123.083173,77.6570627 122.675293,77.8735352 C122.267413,78.0900076 121.771813,78.1982422 121.188477,78.1982422 C120.409176,78.1982422 119.787112,77.9783551 119.322266,77.5385742 C118.85742,77.0987934 118.625,76.5097693 118.625,75.7714844 C118.625,74.9192666 118.910967,74.2721376 119.48291,73.8300781 C120.054853,73.3880186 120.894526,73.1669922 122.001953,73.1669922 L123.69043,73.1669922 L123.69043,72.96875 C123.685872,72.3580699 123.530926,71.9148777 123.225586,71.6391602 C122.920246,71.3634426 122.432621,71.2255859 121.762695,71.2255859 C121.334308,71.2255859 120.901369,71.2871088 120.463867,71.4101562 C120.026365,71.5332037 119.600262,71.713215 119.185547,71.9501953 L119.185547,70.6923828 C119.650393,70.5146475 120.095864,70.3813481 120.521973,70.2924805 C120.948082,70.2036128 121.361652,70.1591797 121.762695,70.1591797 C122.396162,70.1591797 122.937335,70.2526032 123.38623,70.4394531 C123.835126,70.626303 124.198566,70.9065737 124.476562,71.2802734 C124.64974,71.5081392 124.772786,71.7895491 124.845703,72.1245117 C124.91862,72.4594743 124.955078,72.9619107 124.955078,73.6318359 L124.955078,73.6318359 Z M131.05957,75.2314453 C131.05957,75.7965523 131.163248,76.2226548 131.370605,76.5097656 C131.577963,76.7968764 131.884438,76.9404297 132.290039,76.9404297 L133.759766,76.9404297 L133.759766,78 L132.166992,78 C131.415035,78 130.832847,77.7596053 130.42041,77.2788086 C130.007973,76.7980119 129.801758,76.1155643 129.801758,75.2314453 L129.801758,68.3066406 L127.785156,68.3066406 L127.785156,67.3222656 L131.05957,67.3222656 L131.05957,75.2314453 Z M139.488281,75.2314453 C139.488281,75.7965523 139.591959,76.2226548 139.799316,76.5097656 C140.006674,76.7968764 140.313149,76.9404297 140.71875,76.9404297 L142.188477,76.9404297 L142.188477,78 L140.595703,78 C139.843746,78 139.261558,77.7596053 138.849121,77.2788086 C138.436684,76.7980119 138.230469,76.1155643 138.230469,75.2314453 L138.230469,68.3066406 L136.213867,68.3066406 L136.213867,67.3222656 L139.488281,67.3222656 L139.488281,75.2314453 Z M152.12793,73.0507812 L159.374023,73.0507812 L159.374023,74.2060547 L152.12793,74.2060547 L152.12793,73.0507812 Z M165.724609,74.1103516 C165.724609,73.1669875 165.570802,72.4503605 165.263184,71.9604492 C164.955565,71.4705379 164.507815,71.2255859 163.919922,71.2255859 C163.304684,71.2255859 162.835288,71.4705379 162.511719,71.9604492 C162.188149,72.4503605 162.026367,73.1669875 162.026367,74.1103516 C162.026367,75.0537157 162.189289,75.7726212 162.515137,76.2670898 C162.840985,76.7615585 163.313799,77.0087891 163.933594,77.0087891 C164.512373,77.0087891 164.955565,76.7604192 165.263184,76.2636719 C165.570802,75.7669246 165.724609,75.0491583 165.724609,74.1103516 L165.724609,74.1103516 Z M166.982422,77.5078125 C166.982422,78.6562557 166.711266,79.5266897 166.168945,80.1191406 C165.626625,80.7115915 164.829107,81.0078125 163.776367,81.0078125 C163.430011,81.0078125 163.06771,80.9759118 162.689453,80.9121094 C162.311196,80.848307 161.932945,80.7548834 161.554688,80.6318359 L161.554688,79.3876953 C162.001304,79.5973318 162.406899,79.7522781 162.771484,79.8525391 C163.13607,79.9528 163.471027,80.0029297 163.776367,80.0029297 C164.455407,80.0029297 164.949868,79.8183612 165.259766,79.4492188 C165.569663,79.0800763 165.724609,78.4944702 165.724609,77.6923828 L165.724609,77.6376953 L165.724609,76.7832031 C165.524088,77.2115907 165.250653,77.5305979 164.904297,77.7402344 C164.557941,77.9498708 164.136396,78.0546875 163.639648,78.0546875 C162.746415,78.0546875 162.033206,77.6969437 161.5,76.9814453 C160.966794,76.2659469 160.700195,75.3089253 160.700195,74.1103516 C160.700195,72.9072205 160.966794,71.9479202 161.5,71.2324219 C162.033206,70.5169235 162.746415,70.1591797 163.639648,70.1591797 C164.131838,70.1591797 164.548826,70.2571605 164.890625,70.453125 C165.232424,70.6490895 165.510416,70.9521464 165.724609,71.3623047 L165.724609,70.3710938 L166.982422,70.3710938 L166.982422,77.5078125 Z M181.515625,74.1513672 L181.098633,74.1513672 C180.364905,74.1513672 179.812339,74.2801094 179.440918,74.5375977 C179.069497,74.7950859 178.883789,75.1790339 178.883789,75.6894531 C178.883789,76.1497419 179.022785,76.5074857 179.300781,76.7626953 C179.578777,77.0179049 179.963865,77.1455078 180.456055,77.1455078 C181.148766,77.1455078 181.693357,76.9051131 182.089844,76.4243164 C182.48633,75.9435197 182.686849,75.2793011 182.691406,74.4316406 L182.691406,74.1513672 L181.515625,74.1513672 Z M183.956055,73.6318359 L183.956055,78 L182.691406,78 L182.691406,76.8652344 C182.422525,77.3209658 182.084149,77.6570627 181.67627,77.8735352 C181.26839,78.0900076 180.772789,78.1982422 180.189453,78.1982422 C179.410152,78.1982422 178.788088,77.9783551 178.323242,77.5385742 C177.858396,77.0987934 177.625977,76.5097693 177.625977,75.7714844 C177.625977,74.9192666 177.911944,74.2721376 178.483887,73.8300781 C179.05583,73.3880186 179.895502,73.1669922 181.00293,73.1669922 L182.691406,73.1669922 L182.691406,72.96875 C182.686849,72.3580699 182.531903,71.9148777 182.226562,71.6391602 C181.921222,71.3634426 181.433597,71.2255859 180.763672,71.2255859 C180.335284,71.2255859 179.902346,71.2871088 179.464844,71.4101562 C179.027342,71.5332037 178.601239,71.713215 178.186523,71.9501953 L178.186523,70.6923828 C178.65137,70.5146475 179.09684,70.3813481 179.522949,70.2924805 C179.949058,70.2036128 180.362628,70.1591797 180.763672,70.1591797 C181.397139,70.1591797 181.938312,70.2526032 182.387207,70.4394531 C182.836103,70.626303 183.199543,70.9065737 183.477539,71.2802734 C183.650717,71.5081392 183.773763,71.7895491 183.84668,72.1245117 C183.919597,72.4594743 183.956055,72.9619107 183.956055,73.6318359 L183.956055,73.6318359 Z M192.330078,73.2558594 L192.330078,78 L191.06543,78 L191.06543,73.2558594 C191.06543,72.5677049 190.944663,72.0618506 190.703125,71.7382812 C190.461587,71.4147119 190.083336,71.2529297 189.568359,71.2529297 C188.980466,71.2529297 188.528159,71.4614237 188.211426,71.878418 C187.894692,72.2954122 187.736328,72.8935508 187.736328,73.6728516 L187.736328,78 L186.478516,78 L186.478516,70.34375 L187.736328,70.34375 L187.736328,71.4921875 C187.959637,71.0546853 188.262693,70.7231457 188.645508,70.4975586 C189.028322,70.2719715 189.481768,70.1591797 190.005859,70.1591797 C190.78516,70.1591797 191.367348,70.4155248 191.752441,70.9282227 C192.137534,71.4409205 192.330078,72.2167917 192.330078,73.2558594 L192.330078,73.2558594 Z M199.439453,74.1103516 C199.439453,73.1669875 199.285646,72.4503605 198.978027,71.9604492 C198.670409,71.4705379 198.222659,71.2255859 197.634766,71.2255859 C197.019528,71.2255859 196.550132,71.4705379 196.226562,71.9604492 C195.902993,72.4503605 195.741211,73.1669875 195.741211,74.1103516 C195.741211,75.0537157 195.904132,75.7726212 196.22998,76.2670898 C196.555828,76.7615585 197.028643,77.0087891 197.648438,77.0087891 C198.227216,77.0087891 198.670409,76.7604192 198.978027,76.2636719 C199.285646,75.7669246 199.439453,75.0491583 199.439453,74.1103516 L199.439453,74.1103516 Z M200.697266,77.5078125 C200.697266,78.6562557 200.426109,79.5266897 199.883789,80.1191406 C199.341469,80.7115915 198.543951,81.0078125 197.491211,81.0078125 C197.144855,81.0078125 196.782554,80.9759118 196.404297,80.9121094 C196.02604,80.848307 195.647788,80.7548834 195.269531,80.6318359 L195.269531,79.3876953 C195.716148,79.5973318 196.121743,79.7522781 196.486328,79.8525391 C196.850913,79.9528 197.185871,80.0029297 197.491211,80.0029297 C198.170251,80.0029297 198.664712,79.8183612 198.974609,79.4492188 C199.284507,79.0800763 199.439453,78.4944702 199.439453,77.6923828 L199.439453,77.6376953 L199.439453,76.7832031 C199.238931,77.2115907 198.965497,77.5305979 198.619141,77.7402344 C198.272785,77.9498708 197.851239,78.0546875 197.354492,78.0546875 C196.461259,78.0546875 195.74805,77.6969437 195.214844,76.9814453 C194.681638,76.2659469 194.415039,75.3089253 194.415039,74.1103516 C194.415039,72.9072205 194.681638,71.9479202 195.214844,71.2324219 C195.74805,70.5169235 196.461259,70.1591797 197.354492,70.1591797 C197.846682,70.1591797 198.26367,70.2571605 198.605469,70.453125 C198.947267,70.6490895 199.225259,70.9521464 199.439453,71.3623047 L199.439453,70.3710938 L200.697266,70.3710938 L200.697266,77.5078125 Z M203.335938,75.1015625 L203.335938,70.3574219 L204.59375,70.3574219 L204.59375,75.1015625 C204.59375,75.789717 204.715656,76.2955713 204.959473,76.6191406 C205.203289,76.94271 205.580401,77.1044922 206.09082,77.1044922 C206.683271,77.1044922 207.136717,76.8959982 207.451172,76.4790039 C207.765627,76.0620096 207.922852,75.4638711 207.922852,74.6845703 L207.922852,70.3574219 L209.1875,70.3574219 L209.1875,78 L207.922852,78 L207.922852,76.8515625 C207.699543,77.293622 207.395347,77.6285796 207.010254,77.8564453 C206.625161,78.084311 206.175133,78.1982422 205.660156,78.1982422 C204.876298,78.1982422 204.292971,77.9418971 203.910156,77.4291992 C203.527342,76.9165013 203.335938,76.1406302 203.335938,75.1015625 L203.335938,75.1015625 Z M215.34668,75.2314453 C215.34668,75.7965523 215.450357,76.2226548 215.657715,76.5097656 C215.865073,76.7968764 216.171547,76.9404297 216.577148,76.9404297 L218.046875,76.9404297 L218.046875,78 L216.454102,78 C215.702145,78 215.119956,77.7596053 214.70752,77.2788086 C214.295083,76.7980119 214.088867,76.1155643 214.088867,75.2314453 L214.088867,68.3066406 L212.072266,68.3066406 L212.072266,67.3222656 L215.34668,67.3222656 L215.34668,75.2314453 Z M223.65918,74.1513672 L223.242188,74.1513672 C222.50846,74.1513672 221.955894,74.2801094 221.584473,74.5375977 C221.213052,74.7950859 221.027344,75.1790339 221.027344,75.6894531 C221.027344,76.1497419 221.16634,76.5074857 221.444336,76.7626953 C221.722332,77.0179049 222.107419,77.1455078 222.599609,77.1455078 C223.292321,77.1455078 223.836912,76.9051131 224.233398,76.4243164 C224.629885,75.9435197 224.830404,75.2793011 224.834961,74.4316406 L224.834961,74.1513672 L223.65918,74.1513672 Z M226.099609,73.6318359 L226.099609,78 L224.834961,78 L224.834961,76.8652344 C224.566079,77.3209658 224.227704,77.6570627 223.819824,77.8735352 C223.411945,78.0900076 222.916344,78.1982422 222.333008,78.1982422 C221.553707,78.1982422 220.931643,77.9783551 220.466797,77.5385742 C220.001951,77.0987934 219.769531,76.5097693 219.769531,75.7714844 C219.769531,74.9192666 220.055498,74.2721376 220.627441,73.8300781 C221.199384,73.3880186 222.039057,73.1669922 223.146484,73.1669922 L224.834961,73.1669922 L224.834961,72.96875 C224.830404,72.3580699 224.675457,71.9148777 224.370117,71.6391602 C224.064777,71.3634426 223.577152,71.2255859 222.907227,71.2255859 C222.478839,71.2255859 222.045901,71.2871088 221.608398,71.4101562 C221.170896,71.5332037 220.744794,71.713215 220.330078,71.9501953 L220.330078,70.6923828 C220.794924,70.5146475 221.240395,70.3813481 221.666504,70.2924805 C222.092613,70.2036128 222.506183,70.1591797 222.907227,70.1591797 C223.540693,70.1591797 224.081866,70.2526032 224.530762,70.4394531 C224.979657,70.626303 225.343098,70.9065737 225.621094,71.2802734 C225.794272,71.5081392 225.917317,71.7895491 225.990234,72.1245117 C226.063151,72.4594743 226.099609,72.9619107 226.099609,73.6318359 L226.099609,73.6318359 Z M235.18457,71.9228516 C234.915689,71.7132151 234.642254,71.5605474 234.364258,71.4648438 C234.086262,71.3691401 233.780926,71.3212891 233.448242,71.3212891 C232.664384,71.3212891 232.065106,71.5673804 231.650391,72.0595703 C231.235675,72.5517603 231.02832,73.2626907 231.02832,74.1923828 L231.02832,78 L229.763672,78 L229.763672,70.34375 L231.02832,70.34375 L231.02832,71.8408203 C231.237957,71.2984999 231.560382,70.8826512 231.995605,70.5932617 C232.430829,70.3038723 232.946937,70.1591797 233.543945,70.1591797 C233.853843,70.1591797 234.143228,70.1979163 234.412109,70.2753906 C234.680991,70.352865 234.938475,70.473632 235.18457,70.6376953 L235.18457,71.9228516 Z M236.415039,73.0507812 L243.661133,73.0507812 L243.661133,74.2060547 L236.415039,74.2060547 L236.415039,73.0507812 Z M251.399414,77.6103516 C251.062173,77.8063161 250.714683,77.9532873 250.356934,78.0512695 C249.999184,78.1492518 249.633465,78.1982422 249.259766,78.1982422 C248.074864,78.1982422 247.148604,77.842777 246.480957,77.1318359 C245.81331,76.4208949 245.479492,75.4365297 245.479492,74.1787109 C245.479492,72.9208921 245.81331,71.936527 246.480957,71.2255859 C247.148604,70.5146449 248.074864,70.1591797 249.259766,70.1591797 C249.628908,70.1591797 249.988931,70.2070308 250.339844,70.3027344 C250.690757,70.398438 251.043944,70.5465485 251.399414,70.7470703 L251.399414,72.0664062 C251.06673,71.7701808 250.732912,71.5559902 250.397949,71.4238281 C250.062987,71.291666 249.683596,71.2255859 249.259766,71.2255859 C248.47135,71.2255859 247.865236,71.4807917 247.441406,71.9912109 C247.017576,72.5016302 246.805664,73.2307895 246.805664,74.1787109 C246.805664,75.122075 247.018715,75.8500951 247.444824,76.362793 C247.870933,76.8754908 248.475908,77.1318359 249.259766,77.1318359 C249.697268,77.1318359 250.089191,77.0646166 250.435547,76.9301758 C250.781903,76.795735 251.103189,76.587241 251.399414,76.3046875 L251.399414,77.6103516 Z M257.490234,75.2314453 C257.490234,75.7965523 257.593912,76.2226548 257.80127,76.5097656 C258.008627,76.7968764 258.315102,76.9404297 258.720703,76.9404297 L260.19043,76.9404297 L260.19043,78 L258.597656,78 C257.845699,78 257.263511,77.7596053 256.851074,77.2788086 C256.438637,76.7980119 256.232422,76.1155643 256.232422,75.2314453 L256.232422,68.3066406 L254.21582,68.3066406 L254.21582,67.3222656 L257.490234,67.3222656 L257.490234,75.2314453 Z M263.164062,70.3710938 L266.383789,70.3710938 L266.383789,77.0224609 L268.878906,77.0224609 L268.878906,78 L262.630859,78 L262.630859,77.0224609 L265.125977,77.0224609 L265.125977,71.3486328 L263.164062,71.3486328 L263.164062,70.3710938 Z M265.125977,67.3974609 L266.383789,67.3974609 L266.383789,68.9833984 L265.125977,68.9833984 L265.125977,67.3974609 Z M25.6015625,103.430664 L25.6015625,102.186523 L32.8271484,105.043945 L32.8271484,106.178711 L25.6015625,109.036133 L25.6015625,107.785156 L31.4121094,105.618164 L25.6015625,103.430664 Z M57.4707031,105.255859 L57.4707031,110 L56.2060547,110 L56.2060547,105.255859 C56.2060547,104.567705 56.0852877,104.061851 55.84375,103.738281 C55.6022123,103.414712 55.2239609,103.25293 54.7089844,103.25293 C54.1210908,103.25293 53.6687841,103.461424 53.3520508,103.878418 C53.0353174,104.295412 52.8769531,104.893551 52.8769531,105.672852 L52.8769531,110 L51.6191406,110 L51.6191406,102.34375 L52.8769531,102.34375 L52.8769531,103.492188 C53.1002615,103.054685 53.4033184,102.723146 53.7861328,102.497559 C54.1689472,102.271972 54.6223932,102.15918 55.1464844,102.15918 C55.9257851,102.15918 56.5079733,102.415525 56.8930664,102.928223 C57.2781595,103.440921 57.4707031,104.216792 57.4707031,105.255859 L57.4707031,105.255859 Z M64.5800781,106.110352 C64.5800781,105.166987 64.4262711,104.450361 64.1186523,103.960449 C63.8110336,103.470538 63.3632842,103.225586 62.7753906,103.225586 C62.1601532,103.225586 61.6907568,103.470538 61.3671875,103.960449 C61.0436182,104.450361 60.8818359,105.166987 60.8818359,106.110352 C60.8818359,107.053716 61.0447575,107.772621 61.3706055,108.26709 C61.6964535,108.761558 62.1692677,109.008789 62.7890625,109.008789 C63.3678414,109.008789 63.8110336,108.760419 64.1186523,108.263672 C64.4262711,107.766925 64.5800781,107.049158 64.5800781,106.110352 L64.5800781,106.110352 Z M65.8378906,109.507812 C65.8378906,110.656256 65.5667345,111.52669 65.0244141,112.119141 C64.4820936,112.711592 63.6845756,113.007812 62.6318359,113.007812 C62.28548,113.007812 61.923179,112.975912 61.5449219,112.912109 C61.1666648,112.848307 60.7884133,112.754883 60.4101562,112.631836 L60.4101562,111.387695 C60.8567731,111.597332 61.262368,111.752278 61.6269531,111.852539 C61.9915383,111.9528 62.3264959,112.00293 62.6318359,112.00293 C63.3108758,112.00293 63.805337,111.818361 64.1152344,111.449219 C64.4251318,111.080076 64.5800781,110.49447 64.5800781,109.692383 L64.5800781,109.637695 L64.5800781,108.783203 C64.3795563,109.211591 64.1061215,109.530598 63.7597656,109.740234 C63.4134097,109.949871 62.9918645,110.054688 62.4951172,110.054688 C61.6018836,110.054688 60.8886745,109.696944 60.3554688,108.981445 C59.822263,108.265947 59.5556641,107.308925 59.5556641,106.110352 C59.5556641,104.907221 59.822263,103.94792 60.3554688,103.232422 C60.8886745,102.516924 61.6018836,102.15918 62.4951172,102.15918 C62.9873071,102.15918 63.4042952,102.25716 63.7460938,102.453125 C64.0878923,102.64909 64.3658843,102.952146 64.5800781,103.362305 L64.5800781,102.371094 L65.8378906,102.371094 L65.8378906,109.507812 Z M82.7568359,105.255859 L82.7568359,110 L81.4921875,110 L81.4921875,105.255859 C81.4921875,104.567705 81.3714205,104.061851 81.1298828,103.738281 C80.8883451,103.414712 80.5100937,103.25293 79.9951172,103.25293 C79.4072236,103.25293 78.9549169,103.461424 78.6381836,103.878418 C78.3214502,104.295412 78.1630859,104.893551 78.1630859,105.672852 L78.1630859,110 L76.9052734,110 L76.9052734,102.34375 L78.1630859,102.34375 L78.1630859,103.492188 C78.3863943,103.054685 78.6894512,102.723146 79.0722656,102.497559 C79.45508,102.271972 79.908526,102.15918 80.4326172,102.15918 C81.211918,102.15918 81.7941061,102.415525 82.1791992,102.928223 C82.5642923,103.440921 82.7568359,104.216792 82.7568359,105.255859 L82.7568359,105.255859 Z M91.6572266,105.542969 L91.6572266,106.158203 L86.2089844,106.158203 L86.2089844,106.199219 C86.1725259,107.242844 86.3719054,107.992511 86.8071289,108.448242 C87.2423524,108.903974 87.8564413,109.131836 88.6494141,109.131836 C89.0504577,109.131836 89.4697244,109.068034 89.9072266,108.94043 C90.3447288,108.812825 90.8118465,108.619142 91.3085938,108.359375 L91.3085938,109.610352 C90.8300757,109.806316 90.3686546,109.953287 89.9243164,110.05127 C89.4799782,110.149252 89.0504578,110.198242 88.6357422,110.198242 C87.4462831,110.198242 86.5166049,109.841638 85.8466797,109.128418 C85.1767545,108.415198 84.8417969,107.431972 84.8417969,106.178711 C84.8417969,104.957351 85.1699186,103.9821 85.8261719,103.25293 C86.4824252,102.523759 87.3574164,102.15918 88.4511719,102.15918 C89.4264372,102.15918 90.1954724,102.48958 90.7583008,103.150391 C91.3211291,103.811201 91.620768,104.608719 91.6572266,105.542969 L91.6572266,105.542969 Z M90.3994141,105.173828 C90.3447263,104.64518 90.1521826,104.188316 89.8217773,103.803223 C89.491372,103.41813 89.0162791,103.225586 88.3964844,103.225586 C87.7903616,103.225586 87.2913431,103.426105 86.8994141,103.827148 C86.507485,104.228192 86.2932945,104.679359 86.2568359,105.180664 L90.3994141,105.173828 Z M92.4296875,102.34375 L93.6738281,102.34375 L95.0068359,108.530273 L96.1005859,104.579102 L97.1738281,104.579102 L98.28125,108.530273 L99.6142578,102.34375 L100.858398,102.34375 L99.0673828,110 L97.8642578,110 L96.640625,105.802734 L95.4238281,110 L94.2207031,110 L92.4296875,102.34375 Z M113.908203,103.123047 C114.063152,102.79492 114.260253,102.552247 114.499512,102.39502 C114.738771,102.237792 115.027017,102.15918 115.364258,102.15918 C115.979495,102.15918 116.413573,102.397296 116.666504,102.873535 C116.919435,103.349775 117.045898,104.246413 117.045898,105.563477 L117.045898,110 L115.897461,110 L115.897461,105.618164 C115.897461,104.538081 115.837077,103.867026 115.716309,103.60498 C115.59554,103.342935 115.375653,103.211914 115.056641,103.211914 C114.692055,103.211914 114.442546,103.352049 114.308105,103.632324 C114.173665,103.912599 114.106445,104.574539 114.106445,105.618164 L114.106445,110 L112.958008,110 L112.958008,105.618164 C112.958008,104.524409 112.893067,103.849936 112.763184,103.594727 C112.6333,103.339517 112.399741,103.211914 112.0625,103.211914 C111.729816,103.211914 111.498536,103.352049 111.368652,103.632324 C111.238769,103.912599 111.173828,104.574539 111.173828,105.618164 L111.173828,110 L110.032227,110 L110.032227,102.34375 L111.173828,102.34375 L111.173828,103 C111.32422,102.726561 111.512206,102.518067 111.737793,102.374512 C111.96338,102.230956 112.219725,102.15918 112.506836,102.15918 C112.853192,102.15918 113.141438,102.238931 113.371582,102.398438 C113.601726,102.557944 113.780598,102.799478 113.908203,103.123047 L113.908203,103.123047 Z M123.581055,107.539062 C123.371418,108.072268 123.104819,108.774084 122.78125,109.644531 C122.330076,110.847662 122.027019,111.581379 121.87207,111.845703 C121.662434,112.201174 121.400392,112.467773 121.085938,112.645508 C120.771483,112.823243 120.404624,112.912109 119.985352,112.912109 L118.973633,112.912109 L118.973633,111.859375 L119.71875,111.859375 C120.087892,111.859375 120.377278,111.75228 120.586914,111.538086 C120.796551,111.323892 121.063149,110.770187 121.386719,109.876953 L118.426758,102.34375 L119.759766,102.34375 L122.029297,108.332031 L124.264648,102.34375 L125.597656,102.34375 L123.581055,107.539062 Z M126.841797,105.050781 L134.087891,105.050781 L134.087891,106.206055 L126.841797,106.206055 L126.841797,105.050781 Z M140.438477,103.321289 L140.438477,99.3632812 L141.696289,99.3632812 L141.696289,110 L140.438477,110 L140.438477,109.036133 C140.22884,109.41439 139.949709,109.702636 139.601074,109.900879 C139.25244,110.099122 138.850263,110.198242 138.394531,110.198242 C137.469396,110.198242 136.741376,109.839359 136.210449,109.121582 C135.679522,108.403805 135.414062,107.413743 135.414062,106.151367 C135.414062,104.90722 135.680661,103.93083 136.213867,103.222168 C136.747073,102.513506 137.473954,102.15918 138.394531,102.15918 C138.85482,102.15918 139.260415,102.2583 139.611328,102.456543 C139.962241,102.654786 140.237955,102.943032 140.438477,103.321289 L140.438477,103.321289 Z M136.740234,106.178711 C136.740234,107.153976 136.895181,107.889971 137.205078,108.386719 C137.514976,108.883466 137.972979,109.131836 138.579102,109.131836 C139.185224,109.131836 139.646646,108.881187 139.963379,108.379883 C140.280112,107.878578 140.438477,107.144862 140.438477,106.178711 C140.438477,105.208003 140.280112,104.473147 139.963379,103.974121 C139.646646,103.475095 139.185224,103.225586 138.579102,103.225586 C137.972979,103.225586 137.514976,103.473956 137.205078,103.970703 C136.895181,104.46745 136.740234,105.203446 136.740234,106.178711 L136.740234,106.178711 Z M150.897461,103.922852 C150.628579,103.713215 150.355145,103.560547 150.077148,103.464844 C149.799152,103.36914 149.493817,103.321289 149.161133,103.321289 C148.377275,103.321289 147.777997,103.56738 147.363281,104.05957 C146.948566,104.55176 146.741211,105.262691 146.741211,106.192383 L146.741211,110 L145.476562,110 L145.476562,102.34375 L146.741211,102.34375 L146.741211,103.84082 C146.950847,103.2985 147.273273,102.882651 147.708496,102.593262 C148.14372,102.303872 148.659828,102.15918 149.256836,102.15918 C149.566733,102.15918 149.856118,102.197916 150.125,102.275391 C150.393882,102.352865 150.651366,102.473632 150.897461,102.637695 L150.897461,103.922852 Z M159.086914,105.542969 L159.086914,106.158203 L153.638672,106.158203 L153.638672,106.199219 C153.602213,107.242844 153.801593,107.992511 154.236816,108.448242 C154.67204,108.903974 155.286129,109.131836 156.079102,109.131836 C156.480145,109.131836 156.899412,109.068034 157.336914,108.94043 C157.774416,108.812825 158.241534,108.619142 158.738281,108.359375 L158.738281,109.610352 C158.259763,109.806316 157.798342,109.953287 157.354004,110.05127 C156.909666,110.149252 156.480145,110.198242 156.06543,110.198242 C154.875971,110.198242 153.946292,109.841638 153.276367,109.128418 C152.606442,108.415198 152.271484,107.431972 152.271484,106.178711 C152.271484,104.957351 152.599606,103.9821 153.255859,103.25293 C153.912113,102.523759 154.787104,102.15918 155.880859,102.15918 C156.856125,102.15918 157.62516,102.48958 158.187988,103.150391 C158.750817,103.811201 159.050456,104.608719 159.086914,105.542969 L159.086914,105.542969 Z M157.829102,105.173828 C157.774414,104.64518 157.58187,104.188316 157.251465,103.803223 C156.92106,103.41813 156.445967,103.225586 155.826172,103.225586 C155.220049,103.225586 154.721031,103.426105 154.329102,103.827148 C153.937173,104.228192 153.722982,104.679359 153.686523,105.180664 L157.829102,105.173828 Z M164.658203,106.151367 L164.241211,106.151367 C163.507483,106.151367 162.954917,106.280109 162.583496,106.537598 C162.212075,106.795086 162.026367,107.179034 162.026367,107.689453 C162.026367,108.149742 162.165363,108.507486 162.443359,108.762695 C162.721356,109.017905 163.106443,109.145508 163.598633,109.145508 C164.291345,109.145508 164.835936,108.905113 165.232422,108.424316 C165.628908,107.94352 165.829427,107.279301 165.833984,106.431641 L165.833984,106.151367 L164.658203,106.151367 Z M167.098633,105.631836 L167.098633,110 L165.833984,110 L165.833984,108.865234 C165.565103,109.320966 165.226727,109.657063 164.818848,109.873535 C164.410968,110.090008 163.915368,110.198242 163.332031,110.198242 C162.55273,110.198242 161.930666,109.978355 161.46582,109.538574 C161.000974,109.098793 160.768555,108.509769 160.768555,107.771484 C160.768555,106.919267 161.054522,106.272138 161.626465,105.830078 C162.198408,105.388019 163.03808,105.166992 164.145508,105.166992 L165.833984,105.166992 L165.833984,104.96875 C165.829427,104.35807 165.674481,103.914878 165.369141,103.63916 C165.063801,103.363443 164.576175,103.225586 163.90625,103.225586 C163.477862,103.225586 163.044924,103.287109 162.607422,103.410156 C162.16992,103.533204 161.743817,103.713215 161.329102,103.950195 L161.329102,102.692383 C161.793948,102.514648 162.239418,102.381348 162.665527,102.29248 C163.091636,102.203613 163.505206,102.15918 163.90625,102.15918 C164.539717,102.15918 165.08089,102.252603 165.529785,102.439453 C165.978681,102.626303 166.342121,102.906574 166.620117,103.280273 C166.793295,103.508139 166.916341,103.789549 166.989258,104.124512 C167.062175,104.459474 167.098633,104.961911 167.098633,105.631836 L167.098633,105.631836 Z M172.90918,103.123047 C173.064128,102.79492 173.261229,102.552247 173.500488,102.39502 C173.739747,102.237792 174.027993,102.15918 174.365234,102.15918 C174.980472,102.15918 175.41455,102.397296 175.66748,102.873535 C175.920411,103.349775 176.046875,104.246413 176.046875,105.563477 L176.046875,110 L174.898438,110 L174.898438,105.618164 C174.898438,104.538081 174.838054,103.867026 174.717285,103.60498 C174.596516,103.342935 174.376629,103.211914 174.057617,103.211914 C173.693032,103.211914 173.443523,103.352049 173.309082,103.632324 C173.174641,103.912599 173.107422,104.574539 173.107422,105.618164 L173.107422,110 L171.958984,110 L171.958984,105.618164 C171.958984,104.524409 171.894044,103.849936 171.76416,103.594727 C171.634277,103.339517 171.400718,103.211914 171.063477,103.211914 C170.730793,103.211914 170.499512,103.352049 170.369629,103.632324 C170.239745,103.912599 170.174805,104.574539 170.174805,105.618164 L170.174805,110 L169.033203,110 L169.033203,102.34375 L170.174805,102.34375 L170.174805,103 C170.325196,102.726561 170.513182,102.518067 170.73877,102.374512 C170.964357,102.230956 171.220702,102.15918 171.507812,102.15918 C171.854168,102.15918 172.142414,102.238931 172.372559,102.398438 C172.602703,102.557944 172.781575,102.799478 172.90918,103.123047 L172.90918,103.123047 Z M177.414062,105.050781 L184.660156,105.050781 L184.660156,106.206055 L177.414062,106.206055 L177.414062,105.050781 Z M189.944336,106.151367 L189.527344,106.151367 C188.793616,106.151367 188.24105,106.280109 187.869629,106.537598 C187.498208,106.795086 187.3125,107.179034 187.3125,107.689453 C187.3125,108.149742 187.451496,108.507486 187.729492,108.762695 C188.007488,109.017905 188.392576,109.145508 188.884766,109.145508 C189.577477,109.145508 190.122068,108.905113 190.518555,108.424316 C190.915041,107.94352 191.11556,107.279301 191.120117,106.431641 L191.120117,106.151367 L189.944336,106.151367 Z M192.384766,105.631836 L192.384766,110 L191.120117,110 L191.120117,108.865234 C190.851236,109.320966 190.51286,109.657063 190.10498,109.873535 C189.697101,110.090008 189.2015,110.198242 188.618164,110.198242 C187.838863,110.198242 187.216799,109.978355 186.751953,109.538574 C186.287107,109.098793 186.054688,108.509769 186.054688,107.771484 C186.054688,106.919267 186.340655,106.272138 186.912598,105.830078 C187.484541,105.388019 188.324213,105.166992 189.431641,105.166992 L191.120117,105.166992 L191.120117,104.96875 C191.11556,104.35807 190.960614,103.914878 190.655273,103.63916 C190.349933,103.363443 189.862308,103.225586 189.192383,103.225586 C188.763995,103.225586 188.331057,103.287109 187.893555,103.410156 C187.456052,103.533204 187.02995,103.713215 186.615234,103.950195 L186.615234,102.692383 C187.08008,102.514648 187.525551,102.381348 187.95166,102.29248 C188.377769,102.203613 188.791339,102.15918 189.192383,102.15918 C189.82585,102.15918 190.367022,102.252603 190.815918,102.439453 C191.264813,102.626303 191.628254,102.906574 191.90625,103.280273 C192.079428,103.508139 192.202474,103.789549 192.275391,104.124512 C192.348308,104.459474 192.384766,104.961911 192.384766,105.631836 L192.384766,105.631836 Z M196.137695,109.036133 L196.137695,112.912109 L194.873047,112.912109 L194.873047,102.34375 L196.137695,102.34375 L196.137695,103.321289 C196.347332,102.943032 196.626463,102.654786 196.975098,102.456543 C197.323732,102.2583 197.725909,102.15918 198.181641,102.15918 C199.106775,102.15918 199.832517,102.516924 200.358887,103.232422 C200.885257,103.94792 201.148438,104.939121 201.148438,106.206055 C201.148438,107.450202 200.884117,108.426592 200.355469,109.135254 C199.82682,109.843916 199.102218,110.198242 198.181641,110.198242 C197.716795,110.198242 197.31006,110.099122 196.961426,109.900879 C196.612791,109.702636 196.338217,109.41439 196.137695,109.036133 L196.137695,109.036133 Z M199.829102,106.178711 C199.829102,105.203446 199.675295,104.46745 199.367676,103.970703 C199.060057,103.473956 198.603193,103.225586 197.99707,103.225586 C197.38639,103.225586 196.92383,103.475095 196.609375,103.974121 C196.29492,104.473147 196.137695,105.208003 196.137695,106.178711 C196.137695,107.144862 196.29492,107.878578 196.609375,108.379883 C196.92383,108.881187 197.38639,109.131836 197.99707,109.131836 C198.603193,109.131836 199.060057,108.883466 199.367676,108.386719 C199.675295,107.889971 199.829102,107.153976 199.829102,106.178711 L199.829102,106.178711 Z M204.566406,109.036133 L204.566406,112.912109 L203.301758,112.912109 L203.301758,102.34375 L204.566406,102.34375 L204.566406,103.321289 C204.776043,102.943032 205.055174,102.654786 205.403809,102.456543 C205.752443,102.2583 206.15462,102.15918 206.610352,102.15918 C207.535486,102.15918 208.261228,102.516924 208.787598,103.232422 C209.313967,103.94792 209.577148,104.939121 209.577148,106.206055 C209.577148,107.450202 209.312828,108.426592 208.78418,109.135254 C208.255531,109.843916 207.530929,110.198242 206.610352,110.198242 C206.145505,110.198242 205.738771,110.099122 205.390137,109.900879 C205.041502,109.702636 204.766928,109.41439 204.566406,109.036133 L204.566406,109.036133 Z M208.257812,106.178711 C208.257812,105.203446 208.104005,104.46745 207.796387,103.970703 C207.488768,103.473956 207.031904,103.225586 206.425781,103.225586 C205.815101,103.225586 205.352541,103.475095 205.038086,103.974121 C204.723631,104.473147 204.566406,105.208003 204.566406,106.178711 C204.566406,107.144862 204.723631,107.878578 205.038086,108.379883 C205.352541,108.881187 205.815101,109.131836 206.425781,109.131836 C207.031904,109.131836 207.488768,108.883466 207.796387,108.386719 C208.104005,107.889971 208.257812,107.153976 208.257812,106.178711 L208.257812,106.178711 Z M25.6015625,135.430664 L25.6015625,134.186523 L32.8271484,137.043945 L32.8271484,138.178711 L25.6015625,141.036133 L25.6015625,139.785156 L31.4121094,137.618164 L25.6015625,135.430664 Z M57.4707031,137.255859 L57.4707031,142 L56.2060547,142 L56.2060547,137.255859 C56.2060547,136.567705 56.0852877,136.061851 55.84375,135.738281 C55.6022123,135.414712 55.2239609,135.25293 54.7089844,135.25293 C54.1210908,135.25293 53.6687841,135.461424 53.3520508,135.878418 C53.0353174,136.295412 52.8769531,136.893551 52.8769531,137.672852 L52.8769531,142 L51.6191406,142 L51.6191406,134.34375 L52.8769531,134.34375 L52.8769531,135.492188 C53.1002615,135.054685 53.4033184,134.723146 53.7861328,134.497559 C54.1689472,134.271972 54.6223932,134.15918 55.1464844,134.15918 C55.9257851,134.15918 56.5079733,134.415525 56.8930664,134.928223 C57.2781595,135.440921 57.4707031,136.216792 57.4707031,137.255859 L57.4707031,137.255859 Z M64.5800781,138.110352 C64.5800781,137.166987 64.4262711,136.450361 64.1186523,135.960449 C63.8110336,135.470538 63.3632842,135.225586 62.7753906,135.225586 C62.1601532,135.225586 61.6907568,135.470538 61.3671875,135.960449 C61.0436182,136.450361 60.8818359,137.166987 60.8818359,138.110352 C60.8818359,139.053716 61.0447575,139.772621 61.3706055,140.26709 C61.6964535,140.761558 62.1692677,141.008789 62.7890625,141.008789 C63.3678414,141.008789 63.8110336,140.760419 64.1186523,140.263672 C64.4262711,139.766925 64.5800781,139.049158 64.5800781,138.110352 L64.5800781,138.110352 Z M65.8378906,141.507812 C65.8378906,142.656256 65.5667345,143.52669 65.0244141,144.119141 C64.4820936,144.711592 63.6845756,145.007812 62.6318359,145.007812 C62.28548,145.007812 61.923179,144.975912 61.5449219,144.912109 C61.1666648,144.848307 60.7884133,144.754883 60.4101562,144.631836 L60.4101562,143.387695 C60.8567731,143.597332 61.262368,143.752278 61.6269531,143.852539 C61.9915383,143.9528 62.3264959,144.00293 62.6318359,144.00293 C63.3108758,144.00293 63.805337,143.818361 64.1152344,143.449219 C64.4251318,143.080076 64.5800781,142.49447 64.5800781,141.692383 L64.5800781,141.637695 L64.5800781,140.783203 C64.3795563,141.211591 64.1061215,141.530598 63.7597656,141.740234 C63.4134097,141.949871 62.9918645,142.054688 62.4951172,142.054688 C61.6018836,142.054688 60.8886745,141.696944 60.3554688,140.981445 C59.822263,140.265947 59.5556641,139.308925 59.5556641,138.110352 C59.5556641,136.907221 59.822263,135.94792 60.3554688,135.232422 C60.8886745,134.516924 61.6018836,134.15918 62.4951172,134.15918 C62.9873071,134.15918 63.4042952,134.25716 63.7460938,134.453125 C64.0878923,134.64909 64.3658843,134.952146 64.5800781,135.362305 L64.5800781,134.371094 L65.8378906,134.371094 L65.8378906,141.507812 Z M82.2236328,134.610352 L82.2236328,135.84082 C81.863605,135.631184 81.5013039,135.473959 81.1367188,135.369141 C80.7721336,135.264322 80.400718,135.211914 80.0224609,135.211914 C79.4527966,135.211914 79.0278334,135.304198 78.7475586,135.48877 C78.4672838,135.673341 78.3271484,135.954751 78.3271484,136.333008 C78.3271484,136.674806 78.4319651,136.930012 78.6416016,137.098633 C78.851238,137.267253 79.3730427,137.431314 80.2070312,137.59082 L80.7128906,137.686523 C81.3372427,137.805014 81.810057,138.04199 82.1313477,138.397461 C82.4526383,138.752931 82.6132812,139.215492 82.6132812,139.785156 C82.6132812,140.54167 82.3444037,141.132973 81.8066406,141.559082 C81.2688775,141.985191 80.5214892,142.198242 79.5644531,142.198242 C79.186196,142.198242 78.7897156,142.158366 78.375,142.078613 C77.9602844,141.99886 77.5113956,141.879233 77.0283203,141.719727 L77.0283203,140.420898 C77.4977237,140.662436 77.9466124,140.843587 78.375,140.964355 C78.8033876,141.085124 79.2089825,141.145508 79.5917969,141.145508 C80.1477892,141.145508 80.578449,141.032716 80.8837891,140.807129 C81.1891291,140.581542 81.3417969,140.265953 81.3417969,139.860352 C81.3417969,139.277015 80.7835342,138.873699 79.6669922,138.650391 L79.6123047,138.636719 L79.140625,138.541016 C78.416012,138.399739 77.8873715,138.161623 77.5546875,137.82666 C77.2220035,137.491698 77.0556641,137.034834 77.0556641,136.456055 C77.0556641,135.722327 77.304034,135.156089 77.8007812,134.757324 C78.2975285,134.358559 79.0061803,134.15918 79.9267578,134.15918 C80.3369161,134.15918 80.7311179,134.196777 81.109375,134.271973 C81.4876321,134.347168 81.8590477,134.45996 82.2236328,134.610352 L82.2236328,134.610352 Z M91.6572266,137.542969 L91.6572266,138.158203 L86.2089844,138.158203 L86.2089844,138.199219 C86.1725259,139.242844 86.3719054,139.992511 86.8071289,140.448242 C87.2423524,140.903974 87.8564413,141.131836 88.6494141,141.131836 C89.0504577,141.131836 89.4697244,141.068034 89.9072266,140.94043 C90.3447288,140.812825 90.8118465,140.619142 91.3085938,140.359375 L91.3085938,141.610352 C90.8300757,141.806316 90.3686546,141.953287 89.9243164,142.05127 C89.4799782,142.149252 89.0504578,142.198242 88.6357422,142.198242 C87.4462831,142.198242 86.5166049,141.841638 85.8466797,141.128418 C85.1767545,140.415198 84.8417969,139.431972 84.8417969,138.178711 C84.8417969,136.957351 85.1699186,135.9821 85.8261719,135.25293 C86.4824252,134.523759 87.3574164,134.15918 88.4511719,134.15918 C89.4264372,134.15918 90.1954724,134.48958 90.7583008,135.150391 C91.3211291,135.811201 91.620768,136.608719 91.6572266,137.542969 L91.6572266,137.542969 Z M90.3994141,137.173828 C90.3447263,136.64518 90.1521826,136.188316 89.8217773,135.803223 C89.491372,135.41813 89.0162791,135.225586 88.3964844,135.225586 C87.7903616,135.225586 87.2913431,135.426105 86.8994141,135.827148 C86.507485,136.228192 86.2932945,136.679359 86.2568359,137.180664 L90.3994141,137.173828 Z M100.325195,135.922852 C100.056314,135.713215 99.782879,135.560547 99.5048828,135.464844 C99.2268866,135.36914 98.9215511,135.321289 98.5888672,135.321289 C97.8050091,135.321289 97.2057312,135.56738 96.7910156,136.05957 C96.3763,136.55176 96.1689453,137.262691 96.1689453,138.192383 L96.1689453,142 L94.9042969,142 L94.9042969,134.34375 L96.1689453,134.34375 L96.1689453,135.84082 C96.3785818,135.2985 96.7010069,134.882651 97.1362305,134.593262 C97.571454,134.303872 98.0875621,134.15918 98.6845703,134.15918 C98.9944677,134.15918 99.2838528,134.197916 99.5527344,134.275391 C99.8216159,134.352865 100.0791,134.473632 100.325195,134.637695 L100.325195,135.922852 Z M101.541992,134.34375 L102.847656,134.34375 L105.069336,140.769531 L107.297852,134.34375 L108.603516,134.34375 L105.882812,142 L104.262695,142 L101.541992,134.34375 Z M116.943359,137.542969 L116.943359,138.158203 L111.495117,138.158203 L111.495117,138.199219 C111.458659,139.242844 111.658038,139.992511 112.093262,140.448242 C112.528485,140.903974 113.142574,141.131836 113.935547,141.131836 C114.336591,141.131836 114.755857,141.068034 115.193359,140.94043 C115.630862,140.812825 116.097979,140.619142 116.594727,140.359375 L116.594727,141.610352 C116.116209,141.806316 115.654787,141.953287 115.210449,142.05127 C114.766111,142.149252 114.336591,142.198242 113.921875,142.198242 C112.732416,142.198242 111.802738,141.841638 111.132812,141.128418 C110.462887,140.415198 110.12793,139.431972 110.12793,138.178711 C110.12793,136.957351 110.456051,135.9821 111.112305,135.25293 C111.768558,134.523759 112.643549,134.15918 113.737305,134.15918 C114.71257,134.15918 115.481605,134.48958 116.044434,135.150391 C116.607262,135.811201 116.906901,136.608719 116.943359,137.542969 L116.943359,137.542969 Z M115.685547,137.173828 C115.630859,136.64518 115.438315,136.188316 115.10791,135.803223 C114.777505,135.41813 114.302412,135.225586 113.682617,135.225586 C113.076494,135.225586 112.577476,135.426105 112.185547,135.827148 C111.793618,136.228192 111.579427,136.679359 111.542969,137.180664 L115.685547,137.173828 Z" id="&gt;--npm-install--g-an" fill="#FFFFFF"></path>
        </g>
    </g>
</svg>